# xmcd
#
# Track frame offsets:
#	300
#	10959
#	21010
#	30138
#	40668
#	51669
#	61010
#	71333
#	81604
#	90604
#	101479
#	111901
#	123532
#	135247
#	145200
#	155250
#	164187
#	175203
#	184142
#	192827
#	202513
#	212704
#	226913
#	236567
#
# Disc length: 3332 seconds
#
# Revision: 0
# Processed by: cddbd v1.5.1PL0 Copyright (c) Steve Scherf et al.
# Submitted via: MusicWizard 7.1.1b
#
DISCID=410d0018
DTITLE=The Everly Brothers - Portrait
DYEAR=1976
DGENRE=Rock and Roll
TTITLE0=Bye Bye Love
TTITLE1=Bird Dog
TTITLE2=Wake Up Little Susie
TTITLE3=All I Have To Do Is Dream
TTITLE4=(Till) I Kissed You
TTITLE5=Oh, What A Feeling
TTITLE6=This Little Girl Of Mine
TTITLE7=Keep A Knockin'
TTITLE8=Since You Broke My Heart
TTITLE9=Devoted To You
TTITLE10=Be Bop A Lula
TTITLE11=Let It Be Me
TTITLE12=Oh, So Many Years
TTITLE13=I Wonder If I Care As Much
TTITLE14=Rip It Up
TTITLE15=When Will I Be Loved
TTITLE16=Take A Message To Mary
TTITLE17=Like Strangers
TTITLE18=Problems
TTITLE19=Maybe Tomorrow
TTITLE20=Claudette
TTITLE21=That Silver-Haired Daddy Of Mine
TTITLE22=Poor Jenny
TTITLE23=Rockin' Alone In An Old Rockin' Chair
EXTD=(c)1976 Bellaphon Germany\nKatalog: Bellaphon BLS 5539 (LP]\nlicensed by BARNABY RECORDS\n
EXTT0=
EXTT1=
EXTT2=
EXTT3=
EXTT4=
EXTT5=
EXTT6=
EXTT7=
EXTT8=
EXTT9=
EXTT10=
EXTT11=
EXTT12=
EXTT13=
EXTT14=
EXTT15=
EXTT16=
EXTT17=
EXTT18=
EXTT19=
EXTT20=
EXTT21=
EXTT22=
EXTT23=
PLAYORDER=
